PathFileType	4	(X/Y/Z)	C:/Users/beibeiliu/ov580/test_trc/User1\sequence.7_training_dense_left.trc
DataRate	CameraRate	NumFrames	NumMarkers	Units	OrigDataRate	OrigDataStartFrame	OrigNumFrames
120	120	16	19	mm	120	148	295
Frame#	Time	ThumbCMC			ThumbMCP			ThumbIP			ThumbTip			IndexMCP			IndexPIP			IndexTip			MiddleMCP			MiddlePIP			MiddleTip			RingMCP			RingPIP			RingTip			PinkyMCP			PinkyPIP			PinkyTip			BackHand1			BackHand2			BackHand3	
		X0	Y0	Z0	X1	Y1	Z1	X2	Y2	Z2	X3	Y3	Z3	X4	Y4	Z4	X5	Y5	Z5	X6	Y6	Z6	X7	Y7	Z7	X8	Y8	Z8	X9	Y9	Z9	X10	Y10	Z10	X11	Y11	Z11	X12	Y12	Z12	X13	Y13	Z13	X14	Y14	Z14	X15	Y15	Z15	X16	Y16	Z16	X17	Y17	Z17	X18	Y18	Z18	
147	1.225	-150.755	121.642	3.71663	-125.85	96.7269	-12.8914	-121.207	78.5275	-34.6855	-118.19	54.5603	-51.7535	-161.364	112.508	-77.5521	-149.193	88.4388	-96.4808	-125.815	67.911	-81.7679	-172.2	84.0648	-79.3102	-147.527	61.3847	-79.7156	-135.383	60.0369	-42.7517	-183.216	65.0793	-66.2264	-154.872	46.4214	-56.2599	-152.223	53.6351	-22.3807	-197.895	51.8516	-50.4621	-168.808	43.464	-41.4121	-161.699	60.0271	-13.9462	-212.521	100.991	-25.7837	-218.716	113.506	11.6914	-187.841	132.888	-8.48521	
148	1.23333	-152.211	124.89	5.96462	-127.612	98.8333	-14.3346	-118.71	81.4714	-33.3228	-114.488	55.6833	-49.21	-164.835	108.963	-75.5642	-150.715	84.3916	-94.2925	-124.065	67.7239	-74.4453	-169.679	84.9838	-79.0046	-142.891	61.1808	-78.0987	-134.631	60.9875	-38.9495	-179.729	60.1237	-65.5962	-151.403	45.0239	-55.8249	-145.563	57.0689	-23.1655	-192.746	49.9882	-48.7833	-163.903	42.1532	-41.042	-157.916	59.0378	-12.8266	-211.813	96.756	-25.9754	-219.825	111.428	11.2881	-192.746	129.633	-11.051	
149	1.24167	-156.643	124.233	4.88868	-125.834	102.358	-10.5748	-115.25	82.6031	-34.8427	-116.613	56.3967	-49.5897	-164.608	104.491	-79.4382	-150.169	82.2796	-92.7876	-120.047	73.8114	-69.9692	-169.611	83.0165	-77.0549	-142.569	58.7498	-77.8375	-130.36	65.7778	-36.0534	-175.345	60.8852	-65.2506	-147.69	43.8101	-52.7081	-144.741	52.6583	-22.6491	-190.3	48.315	-45.8741	-163.039	37.2235	-40.2664	-156.21	56.6419	-12.0521	-213.636	92.2256	-25.0436	-222.665	102.769	9.93926	-194.531	129.181	-11.3407	
150	1.25	-158.551	124.125	1.85801	-127.995	101.649	-14.1214	-115.269	86.0492	-30.3558	-112.223	58.6721	-45.7483	-166.079	104.28	-76.0799	-143.683	83.7559	-93.5036	-121.701	74.2374	-66.9078	-169.24	76.5573	-77.6931	-139.58	57.3824	-72.3063	-129.815	64.1374	-38.8836	-171.096	59.2668	-65.5373	-144.784	44.5719	-50.5593	-143.249	56.6319	-20.4596	-187.796	43.0884	-46.0281	-158.735	39.0206	-36.6792	-152.52	58.1433	-8.90302	-212.501	92.061	-21.4916	-221.269	101.196	9.21095	-197.57	127.221	-11.8879	
151	1.25833	-156.19	126.818	1.61308	-131.7	102.451	-13.1385	-114.634	85.3702	-33.7009	-116.379	59.5074	-44.3615	-166.45	103.402	-75.0121	-144.737	81.7783	-90.5707	-120.925	78.1971	-62.49	-170.041	76.2202	-74.7384	-138.092	57.4991	-73.4011	-129.029	67.5031	-35.0982	-169.825	54.7316	-63.4196	-142.024	45.5031	-48.2411	-140.8	56.1899	-19.6863	-182.288	43.8349	-45.4855	-155.731	37.5793	-35.0667	-150.12	55.7656	-9.94922	-214.193	86.7859	-24.8435	-223.226	97.3365	8.86102	-199.391	120.631	-14.7444	
152	1.26667	-158.91	126.004	1.94583	-130.484	105.138	-9.10669	-115.119	88.3412	-29.7098	-112.347	62.0623	-43.0976	-164.798	102.294	-77.3898	-141.445	83.4521	-90.028	-120.518	81.0197	-63.1596	-168.298	74.709	-76.1346	-135.721	60.3069	-74.0171	-128.606	67.6281	-35.9356	-170.307	56.4493	-61.486	-141.13	45.0349	-48.9047	-141.536	59.9009	-15.6574	-181.759	39.2218	-42.5081	-152.865	41.1105	-34.3276	-150.329	59.834	-9.63835	-212.605	85.4965	-20.9715	-222.585	98.9932	8.96772	-201.019	120.371	-11.8167	
153	1.275	-161.914	124.677	2.71259	-128.716	107.037	-11.2258	-118.702	87.7302	-30.774	-112.067	63.8219	-41.2918	-167.96	99.1579	-73.4827	-139.584	81.4858	-88.7377	-120.937	83.3578	-57.8295	-165.116	74.6984	-78.5743	-135.479	58.872	-72.7092	-126.447	71.7708	-36.377	-171.434	52.1742	-59.3131	-137.359	45.2358	-46.1695	-137.332	60.3401	-19.1538	-178.094	41.8228	-41.9234	-149.727	39.3828	-30.3245	-148.096	59.6822	-8.09464	-211.814	80.338	-23.8551	-223.929	94.0673	11.4417	-203.085	119.199	-10.8082	
154	1.28333	-163.821	125.233	2.38059	-128.463	108.539	-13.2852	-114.866	89.2996	-33.9104	-115.938	64.4517	-42.2791	-166.806	99.8314	-79.1543	-142.63	79.8817	-86.7013	-122.172	84.0215	-60.2394	-167.537	72.4331	-75.7973	-133.746	62.1576	-73.3416	-127.026	74.7045	-34.2817	-169.117	56.933	-60.412	-136.9	46.2379	-45.1759	-138.198	61.3454	-17.3751	-178.389	39.3676	-40.432	-147.808	42.9238	-33.1023	-146.696	59.2948	-9.37689	-211.317	82.2831	-21.834	-223.33	91.9086	12.5888	-201.285	118.188	-13.3757	
155	1.29167	-165.626	127.137	5.45291	-134.436	107.195	-13.5401	-117.043	92.4018	-31.6381	-112.305	64.9944	-45.7651	-168.217	103.273	-76.0108	-142.143	84.4465	-90.3306	-120.213	87.7275	-62.0918	-167.688	74.9954	-76.4643	-131.406	65.4786	-71.0161	-127.504	74.3083	-35.7024	-167.343	57.0924	-61.667	-136.584	46.5838	-49.2483	-136.65	63.5114	-18.6957	-173.429	40.5782	-43.0307	-147.076	40.9049	-32.642	-144.497	61.5478	-9.04994	-211.878	82.0128	-22.1464	-224.814	92.6334	12.1231	-206.744	115.942	-10.2959	
156	1.3	-166.246	127.86	2.49633	-136.023	111.322	-12.977	-117.111	96.322	-33.6632	-108.091	71.049	-44.6599	-171.137	98.9295	-76.9913	-146.613	83.6138	-90.2971	-121.408	87.0556	-66.4902	-166.982	73.0532	-77.9776	-133.552	64.9211	-73.1591	-128.885	76.2891	-34.4492	-166.117	52.9821	-62.4028	-133.959	53.4346	-50.1162	-137.263	65.8751	-18.5522	-176.066	44.1564	-42.1627	-147.348	43.802	-36.5948	-143.293	61.705	-8.30072	-210.804	79.3137	-22.6411	-222.651	90.776	9.84497	-205.869	113.805	-13.7831	
157	1.30833	-168.04	131.575	5.52357	-136.43	115.138	-9.40918	-117.916	100.067	-32.7015	-112.39	75.1004	-44.8414	-173.256	106.467	-77.3464	-152.055	88.9953	-94.3838	-120.316	88.2917	-75.9725	-170.378	75.8259	-75.5905	-132.847	69.0622	-74.6651	-129.564	79.4778	-34.1808	-166.948	54.2368	-61.0215	-134.995	54.6022	-50.6112	-138.694	67.6365	-18.3467	-173.939	41.7796	-43.9118	-146.074	45.3389	-37.2337	-147.586	66.6052	-12.6642	-212.245	76.2124	-23.2357	-224.563	86.5775	10.264	-206.561	118.134	-10.9949	
158	1.31667	-171.04	129.157	3.13655	-136.213	117.733	-13.268	-121.998	103.591	-30.1853	-109.626	82.2638	-44.0699	-177.437	105.588	-78.2359	-156.441	91.1247	-98.348	-125.055	84.6348	-88.1837	-166.645	78.5111	-79.5688	-135.05	71.0169	-77.0641	-127.592	79.2094	-38.1769	-163.618	55.8875	-63.6221	-133.756	57.6971	-50.7861	-136.903	67.4275	-19.7391	-172.463	41.5696	-44.7366	-145.403	43.7887	-36.1846	-149.174	66.1856	-9.27858	-212.337	77.7841	-19.7834	-226.068	84.689	11.0706	-209.405	116.762	-12.3029	
159	1.325	-172.383	131.38	5.98525	-137.454	120.208	-14.3812	-121.134	107.391	-34.8792	-109.37	85.5882	-47.3043	-178.984	112.217	-76.1352	-160.033	95.3539	-103.165	-132.706	84.2385	-99.4386	-170.251	79.6046	-76.5984	-133.9	71.8502	-73.4369	-127.354	83.305	-36.5017	-165.989	57.9443	-61.4907	-133.338	61.3572	-50.5911	-138.571	72.9662	-19.3452	-172.839	45.5661	-45.689	-146.002	50.2524	-37.2448	-146.509	70.2756	-12.9585	-214.941	77.2962	-20.7172	-226.887	84.2483	9.21542	-211.163	113.655	-12.6275	
160	1.33333	-175.606	130.816	6.24894	-141.433	122.463	-13.0261	-121.401	111.918	-33.873	-108.72	88.4569	-50.5868	-182.552	108.923	-78.1491	-167.564	98.4617	-103.239	-136.045	86.1593	-110.955	-166.944	82.5658	-78.679	-133.148	76.8786	-73.1327	-128.256	85.3894	-33.1116	-166.932	61.7942	-61.4605	-132.161	60.4134	-45.6905	-137.607	72.8558	-18.7855	-173.002	44.3862	-43.6254	-142.502	51.4009	-33.4396	-150.432	74.6121	-10.7696	-213.13	79.897	-25.4109	-224.492	87.1513	9.73592	-213.173	117.075	-11.0687	
161	1.34167	-177.818	131.78	4.17531	-140.352	126.233	-13.5053	-123.308	113.843	-34.8846	-108.236	94.0243	-50.2142	-182.756	113.447	-78.2053	-171.032	102.846	-103.755	-141.859	87.1229	-116.329	-169.243	83.0338	-75.7495	-133.299	77.068	-72.6957	-126.143	85.4592	-34.8081	-162.966	60.4449	-62.3147	-132.62	65.8891	-48.9072	-138.654	76.5051	-15.6981	-172.375	45.5796	-43.3691	-143.858	53.8827	-37.5943	-147.378	72.7176	-10.5104	-212.388	76.5954	-25.1972	-225.004	80.4361	7.8349	-214.308	111.387	-13.2947	
162	1.35	-180.285	131.757	1.357	-142.873	127.23	-15.7286	-122.855	118.685	-32.3808	-109.386	99.1715	-47.0541	-184.829	113.158	-79.9488	-169.913	98.6425	-107.435	-145.013	88.4964	-121.614	-165.712	82.7353	-78.7642	-129.256	83.4494	-71.9415	-124.355	91.5745	-35.4201	-158.235	64.1589	-62.1952	-131.206	66.7137	-46.7454	-135.43	78.7609	-16.6195	-166.637	45.172	-45.2221	-139.392	54.1242	-34.3084	-149.363	77.6975	-8.67431	-212.566	74.8132	-23.7632	-224.82	80.3872	6.57906	-215.343	114.973	-12.3663	
